<svg width="248" height="255" viewBox="0 0 248 255" fill="none" xmlns="http://www.w3.org/2000/svg">
<ellipse cx="123.547" cy="123.786" rx="123.547" ry="123.006" fill="#8428F8"/>
<mask id="mask0_202_171" style="mask-type:alpha" maskUnits="userSpaceOnUse" x="0" y="0" width="248" height="247">
<ellipse cx="123.547" cy="123.786" rx="123.547" ry="123.006" fill="#8428F8"/>
</mask>
<g mask="url(#mask0_202_171)">
<path fill-rule="evenodd" clip-rule="evenodd" d="M123.756 60.8616C156.758 60.8616 183.513 92.3428 183.513 131.177L183.514 138.919C189.569 140.115 194.184 146.313 194.184 153.778V171.357C194.184 178.956 189.402 185.242 183.186 186.275C180.981 211.143 167.76 232.157 149.367 242.439L149.366 265.529H153.634C196.066 265.529 230.465 306.005 230.465 355.934V367.235H17.0466V355.934C17.0466 306.005 51.4448 265.529 93.8771 265.529H98.1455L98.1454 242.439C79.7515 232.157 66.5298 211.144 64.3242 186.275C58.1091 185.242 53.3277 178.956 53.3277 171.357V153.778C53.3277 146.312 57.9425 140.114 63.9988 138.919L63.9986 131.177C63.9986 92.3428 90.7527 60.8616 123.756 60.8616Z" fill="#D4A181"/>
<mask id="mask1_202_171" style="mask-type:alpha" maskUnits="userSpaceOnUse" x="17" y="245" width="214" height="123">
<path fill-rule="evenodd" clip-rule="evenodd" d="M149.367 245.528C168.681 248.071 183.513 255.062 183.513 273.159L183.507 272.617C211.1 286.332 230.465 318.472 230.465 355.934V367.235H17.0466V355.934C17.0466 318.471 36.4115 286.331 64.0052 272.616C64.2984 254.921 79.0253 248.046 98.1453 245.528L98.1455 269.296C98.1455 285.939 109.612 299.431 123.756 299.431C137.9 299.431 149.366 285.939 149.366 269.296L149.367 245.528Z" fill="white"/>
</mask>
<g mask="url(#mask1_202_171)">
<path fill-rule="evenodd" clip-rule="evenodd" d="M149.367 245.528C168.681 248.071 183.513 255.062 183.513 273.159L183.507 272.617C211.1 286.332 230.465 318.472 230.465 355.934V367.235H17.0466V355.934C17.0466 318.471 36.4115 286.331 64.0052 272.616C64.2984 254.921 79.0253 248.046 98.1453 245.528L98.1455 269.296C98.1455 285.939 109.612 299.431 123.756 299.431C137.9 299.431 149.366 285.939 149.366 269.296L149.367 245.528Z" fill="#48A0E1"/>
<path fill-rule="evenodd" clip-rule="evenodd" d="M167.55 245.094C183.61 248.668 194.717 255.79 194.717 269.683C194.717 294.434 159.463 314.499 123.756 314.499C88.0482 314.499 52.7941 294.434 52.7941 269.683C52.7941 255.79 63.9011 248.668 79.961 245.094C70.2675 249.3 63.9985 256.371 63.9985 268.137C63.9985 293.742 93.6862 314.499 123.756 314.499C153.825 314.499 183.513 293.742 183.513 268.137C183.513 256.615 177.501 249.595 168.148 245.359L167.55 245.094Z" fill="black" fill-opacity="0.16"/>
</g>
</g>
<path fill-rule="evenodd" clip-rule="evenodd" d="M110.95 178.891C110.95 184.438 116.683 188.936 123.756 188.936C130.828 188.936 136.561 184.438 136.561 178.891" fill="black" fill-opacity="0.16"/>
<mask id="mask2_202_171" style="mask-type:alpha" maskUnits="userSpaceOnUse" x="103" y="200" width="41" height="25">
<path fill-rule="evenodd" clip-rule="evenodd" d="M103.607 202.909C104.736 214.827 113.326 224.093 123.756 224.093C134.218 224.093 142.829 214.769 143.915 202.798C144.002 201.835 143.088 200.236 141.942 200.236C126.049 200.236 113.872 200.236 105.708 200.236C104.555 200.236 103.494 201.716 103.607 202.909Z" fill="white"/>
</mask>
<g mask="url(#mask2_202_171)">
<path fill-rule="evenodd" clip-rule="evenodd" d="M103.607 202.909C104.736 214.827 113.326 224.093 123.756 224.093C134.218 224.093 142.829 214.769 143.915 202.798C144.002 201.835 143.088 200.236 141.942 200.236C126.049 200.236 113.872 200.236 105.708 200.236C104.555 200.236 103.494 201.716 103.607 202.909Z" fill="black" fill-opacity="0.7"/>
<path fill-rule="evenodd" clip-rule="evenodd" d="M113.085 186.425H135.494C138.44 186.425 140.829 189.235 140.829 192.703V200.236C140.829 203.704 138.44 206.515 135.494 206.515H113.085C110.138 206.515 107.749 203.704 107.749 200.236V192.703C107.749 189.235 110.138 186.425 113.085 186.425Z" fill="white"/>
<path fill-rule="evenodd" clip-rule="evenodd" d="M129.091 214.048C135.574 214.048 140.829 220.232 140.829 227.86C140.829 235.488 135.574 241.672 129.091 241.672C127.17 241.672 125.357 241.129 123.756 240.166C122.155 241.129 120.342 241.672 118.42 241.672C111.938 241.672 106.682 235.488 106.682 227.86C106.682 220.232 111.938 214.048 118.42 214.048C120.342 214.048 122.155 214.592 123.756 215.555C125.357 214.591 127.17 214.048 129.091 214.048Z" fill="#FF4F6D"/>
</g>
<path fill-rule="evenodd" clip-rule="evenodd" d="M81.2428 156.851C83.2132 152.081 87.6499 148.756 92.8073 148.756C97.9465 148.756 102.37 152.058 104.351 156.801C104.939 158.21 104.102 159.363 103.257 158.508C100.642 155.862 96.9275 154.21 92.8073 154.21C88.816 154.21 85.2056 155.761 82.6059 158.263C81.6554 159.178 80.6665 158.246 81.2428 156.851Z" fill="black" fill-opacity="0.6"/>
<path fill-rule="evenodd" clip-rule="evenodd" d="M143.134 156.851C145.105 152.081 149.541 148.756 154.699 148.756C159.838 148.756 164.261 152.058 166.242 156.801C166.831 158.21 165.993 159.363 165.149 158.508C162.533 155.862 158.819 154.21 154.699 154.21C150.707 154.21 147.097 155.761 144.497 158.263C143.547 159.178 142.558 158.246 143.134 156.851Z" fill="black" fill-opacity="0.6"/>
<path d="M80.6774 140.165C84.855 133.249 96.3079 129.37 106.173 132.221C107.318 132.551 108.474 131.728 108.755 130.381C109.036 129.034 108.336 127.674 107.191 127.343C95.7342 124.032 82.4721 128.524 77.1982 137.256C76.5154 138.386 76.7407 139.954 77.7015 140.758C78.6623 141.561 79.9946 141.296 80.6774 140.165Z" fill="black" fill-opacity="0.6"/>
<path d="M166.834 140.165C162.656 133.249 151.204 129.37 141.338 132.221C140.194 132.551 139.038 131.728 138.757 130.381C138.476 129.034 139.176 127.674 140.32 127.343C151.777 124.032 165.039 128.524 170.313 137.256C170.996 138.386 170.771 139.954 169.81 140.758C168.849 141.561 167.517 141.296 166.834 140.165Z" fill="black" fill-opacity="0.6"/>
<mask id="mask3_202_171" style="mask-type:alpha" maskUnits="userSpaceOnUse" x="35" y="38" width="168" height="217">
<path fill-rule="evenodd" clip-rule="evenodd" d="M123.756 38.2604C163.831 38.2604 196.933 73.3884 202.037 118.904C202.319 121.413 202.536 130.369 202.69 145.772C202.711 145.904 202.72 146.007 202.72 146.087V214.048C202.72 236.239 187.432 254.228 168.573 254.228H149.366V242.439C168.073 231.982 181.43 210.426 183.29 185.002C189.455 183.916 194.184 177.658 194.184 170.101V153.778C194.184 151.874 193.883 149.4 193.336 146.75C174.248 139.99 155.448 119.491 144.504 90.5676C144.213 89.7981 143.929 89.0276 143.653 88.2565L143.244 87.1005L143.008 87.8278C138.058 102.817 128.927 113.723 115.616 120.548C120.815 113.081 125.243 104.382 128.9 94.4525C120.388 105.133 109.321 115.47 96.3757 124.265C83.1752 133.233 69.7709 139.407 57.4576 142.696C54.9183 145.449 53.3277 149.395 53.3277 153.778V170.101C53.3277 177.658 58.0558 183.916 64.2211 185.002C66.0813 210.426 79.4385 231.982 98.1454 242.439V254.228H53.3277C48.613 254.228 44.7909 249.731 44.7909 244.183L44.7916 144.16C43.0027 143.981 41.3318 143.587 40.3662 142.82C36.9958 140.146 35.1871 135.007 35.1871 129.293C35.1871 120.625 39.9647 113.598 45.858 113.598C53.1812 70.6911 85.2498 38.2604 123.756 38.2604Z" fill="white"/>
</mask>
<g mask="url(#mask3_202_171)">
<path fill-rule="evenodd" clip-rule="evenodd" d="M123.756 38.2604C163.831 38.2604 196.933 73.3884 202.037 118.904C202.319 121.413 202.536 130.369 202.69 145.772C202.711 145.904 202.72 146.007 202.72 146.087V214.048C202.72 236.239 187.432 254.228 168.573 254.228H149.366V242.439C168.073 231.982 181.43 210.426 183.29 185.002C189.455 183.916 194.184 177.658 194.184 170.101V153.778C194.184 151.874 193.883 149.4 193.336 146.75C174.248 139.99 155.448 119.491 144.504 90.5676C144.213 89.7981 143.929 89.0276 143.653 88.2565L143.244 87.1005L143.008 87.8278C138.058 102.817 128.927 113.723 115.616 120.548C120.815 113.081 125.243 104.382 128.9 94.4525C120.388 105.133 109.321 115.47 96.3757 124.265C83.1752 133.233 69.7709 139.407 57.4576 142.696C54.9183 145.449 53.3277 149.395 53.3277 153.778V170.101C53.3277 177.658 58.0558 183.916 64.2211 185.002C66.0813 210.426 79.4385 231.982 98.1454 242.439V254.228H53.3277C48.613 254.228 44.7909 249.731 44.7909 244.183L44.7916 144.16C43.0027 143.981 41.3318 143.587 40.3662 142.82C36.9958 140.146 35.1871 135.007 35.1871 129.293C35.1871 120.625 39.9647 113.598 45.858 113.598C53.1812 70.6911 85.2498 38.2604 123.756 38.2604Z" fill="#100D0F"/>
</g>
<g opacity="0.44">
<path opacity="0.44" fill-rule="evenodd" clip-rule="evenodd" d="M123.756 38.2604C167.367 38.2604 202.72 79.8605 202.72 131.177V148.945C180.627 146.489 157.243 124.235 144.504 90.5676C144.068 89.4133 143.648 88.257 143.244 87.0994C138.351 102.464 129.142 113.613 115.616 120.548C120.815 113.081 125.243 104.382 128.9 94.4525C120.388 105.133 109.321 115.47 96.3757 124.265C79.6616 135.62 62.6208 142.497 47.8815 144.707C47.2265 144.892 46.55 144.989 45.858 144.989C45.8392 144.989 45.8204 144.989 45.8015 144.988C45.4634 145.03 45.1265 145.069 44.7909 145.105L44.7904 144.911C39.3983 144.123 35.1871 137.432 35.1871 129.293C35.1871 120.625 39.9647 113.598 45.858 113.598C45.9735 113.598 46.0885 113.601 46.2031 113.606C53.1809 70.6913 85.2496 38.2604 123.756 38.2604Z" fill="#100D0F"/>
</g>
</svg>
